<?xml version="1.0" encoding="iso-8859-1"?>
<!-- Generator: Adobe Illustrator 19.0.0, SVG Export Plug-In . SVG Version: 6.00 Build 0)  -->
<svg version="1.1" id="Capa_1" xmlns="http://www.w3.org/2000/svg" xmlns:xlink="http://www.w3.org/1999/xlink" x="0px" y="0px"
	 viewBox="0 0 511.999 511.999" style="enable-background:new 0 0 511.999 511.999;" xml:space="preserve">
<g>
	<g>
		<path d="M498.649,435.266L319.42,256.037l8.125-8.126c8.084-8.084,18.48-12.892,29.271-13.537
			c18.315-1.093,35.549-8.844,48.528-21.824L511.44,106.456l-21.219-21.219l-81.34,81.339l-21.22-21.219l81.34-81.34l-21.219-21.219
			l-81.339,81.339l-21.219-21.219l81.34-81.339L405.345,0.361L299.249,106.456c-12.98,12.98-20.73,30.213-21.825,48.528
			c-0.645,10.792-5.451,21.187-13.536,29.271l-8.125,8.125L63.383,0H45.055l-3.742,9.51C31.435,34.61,27.215,60.282,29.11,83.749
			c2.16,26.748,12.321,49.907,29.388,66.973l119.462,119.462l-164.61,164.61c-17.55,17.55-17.55,46.107,0,63.656
			c18.422,18.422,47.138,16.519,63.656,0l178.757-178.757l179.23,179.23c19.338,19.338,48.236,15.42,63.656,0
			C516.2,481.374,516.2,452.817,498.649,435.266z M285.107,205.474c13.28-13.28,21.19-30.574,22.273-48.7
			c0.656-10.981,5.305-21.316,13.089-29.1l3.537-3.537l63.657,63.657l-3.537,3.537c-7.784,7.784-18.118,12.432-29.099,13.089
			c-18.126,1.083-35.421,8.992-48.7,22.272l-8.125,8.126l-0.29-0.29l-20.93-20.929L285.107,205.474z M55.788,477.233
			c-5.85,5.85-15.368,5.851-21.219,0c-5.85-5.851-5.85-15.369,0-21.219L199.18,291.403l21.22,21.219L55.788,477.233z
			 M241.328,291.113L79.716,129.502c-22.742-22.743-24.376-57.38-17.125-87.855l214.101,214.101L241.328,291.113z M477.43,477.705
			c-5.851,5.85-15.368,5.85-21.219,0l-179.23-179.229l21.219-21.219l179.23,179.228c2.834,2.834,4.395,6.602,4.395,10.61
			C481.825,471.103,480.264,474.871,477.43,477.705z"/>
	</g>
</g>
<g>
</g>
<g>
</g>
<g>
</g>
<g>
</g>
<g>
</g>
<g>
</g>
<g>
</g>
<g>
</g>
<g>
</g>
<g>
</g>
<g>
</g>
<g>
</g>
<g>
</g>
<g>
</g>
<g>
</g>
</svg>
