<svg id="Capa_1" enable-background="new 0 0 512.107 512.107" height="512" viewBox="0 0 512.107 512.107" width="512" xmlns="http://www.w3.org/2000/svg"><g><path d="m406.11 322.952h-26.182l-33.558-167.081-42.965-42.96-10.606 10.605c-6.163 6.162-14.355 9.555-23.069 9.555s-16.907-3.393-23.07-9.555l-5.68-5.679c-17.256-17.254-26.548-41.131-25.495-65.511l.285-6.59-45.739-45.736-149.861 149.846c-12.971 12.97-20.115 30.214-20.115 48.558 0 18.343 7.144 35.588 20.115 48.557l265.175 265.146h158.032c37.868 0 68.676-30.808 68.676-68.676v-14.535c0-58.418-47.526-105.944-105.943-105.944zm-220.693-265.142c.457 30.37 12.768 59.66 34.351 81.241l5.68 5.679c11.828 11.828 27.554 18.341 44.281 18.341 11.606 0 22.73-3.136 32.404-9.006l16.61 16.608 9.831 48.948h-48.247v30h54.273l6.191 30.825h-48.476v30h54.501l8.538 42.508h50.755c38.756 0 70.825 29.182 75.387 66.728l-158.52.112-265.176-265.15 112.231-112.22zm257.96 424.297h-145.606l-256.389-256.36c-7.304-7.303-11.327-17.014-11.327-27.343 0-8.031 2.432-15.689 6.948-22.131l273.557 273.527 170.988-.12c-2.996 18.365-18.972 32.427-38.171 32.427z"/><path d="m.054 362.1h94.491v30h-94.491z"/><path d="m60.058 422.103h94.491v30h-94.491z"/><path d="m120.062 482.107h94.491v30h-94.491z"/></g></svg>