<?xml version="1.0" encoding="UTF-8"?>
<svg id="Livello_2" data-name="Livello 2" xmlns="http://www.w3.org/2000/svg" viewBox="0 0 140.59 103.53">
  <defs>
    <style>
      .cls-1 {
        fill: #fff;
      }

      .cls-2 {
        fill: #ffd930;
      }
    </style>
  </defs>
  <g id="OBJECTS">
    <g>
      <g>
        <path class="cls-1" d="M17.69,65.39h-6.08v11.19c0,.93,.23,1.61,.7,2.04,.47,.43,1.15,.67,2.04,.73,.9,.05,2.01,.04,3.33-.03v6.29c-4.77,.54-8.13,.09-10.08-1.34-1.95-1.43-2.93-4-2.93-7.69v-11.19H0v-6.67H4.68v-5.43l6.94-2.1v7.53h6.08v6.67Z"/>
        <path class="cls-1" d="M29.96,63.34c.65-1.72,1.71-3.01,3.2-3.87,1.49-.86,3.15-1.29,4.97-1.29v7.75c-2.12-.25-4.01,.18-5.67,1.29-1.67,1.11-2.5,2.96-2.5,5.54v12.85h-6.94v-26.89h6.94v4.62Z"/>
        <path class="cls-1" d="M61.58,58.72h6.94v26.89h-6.94v-3.17c-2.08,2.62-5,3.93-8.77,3.93s-6.66-1.37-9.22-4.11-3.85-6.1-3.85-10.08,1.28-7.34,3.85-10.08,5.64-4.11,9.22-4.11c3.76,0,6.69,1.31,8.77,3.93v-3.17Zm-12.8,18.91c1.4,1.42,3.17,2.12,5.32,2.12s3.93-.71,5.35-2.12c1.42-1.42,2.12-3.24,2.12-5.46s-.71-4.04-2.12-5.46c-1.42-1.42-3.2-2.12-5.35-2.12s-3.93,.71-5.32,2.12c-1.4,1.42-2.1,3.24-2.1,5.46s.7,4.04,2.1,5.46Z"/>
        <path class="cls-1" d="M92.51,58.72h7.64l-10.22,26.89h-7.91l-10.22-26.89h7.64l6.52,18.82,6.55-18.82Z"/>
        <path class="cls-1" d="M108.26,75.01c.93,3.37,3.46,5.06,7.58,5.06,2.65,0,4.66-.9,6.02-2.69l5.59,3.23c-2.65,3.84-6.56,5.75-11.73,5.75-4.45,0-8.01-1.34-10.7-4.03-2.69-2.69-4.03-6.08-4.03-10.17s1.33-7.43,3.98-10.14c2.65-2.71,6.06-4.06,10.22-4.06,3.94,0,7.2,1.36,9.76,4.09,2.56,2.72,3.85,6.1,3.85,10.11,0,.9-.09,1.85-.27,2.85h-20.28Zm-.11-5.38h13.71c-.4-1.83-1.21-3.19-2.45-4.09-1.24-.9-2.65-1.34-4.22-1.34-1.86,0-3.41,.48-4.63,1.42-1.22,.95-2.03,2.29-2.42,4.01Z"/>
        <path class="cls-1" d="M133.65,85.61V46.35h6.94v39.26h-6.94Z"/>
      </g>
      <g>
        <path class="cls-1" d="M80.37,42.34h0c-.44,.46-1.15,.5-1.63,.09l-17.67-14.96c-.71-.62-1.19-1.46-1.38-2.39l-.25-1.27c-.17-.85,.55-1.6,1.41-1.48l1.28,.19c.93,.14,1.8,.58,2.45,1.26l15.81,16.92c.43,.46,.43,1.18,0,1.64Z"/>
        <g>
          <g>
            <polygon class="cls-1" points="65.36 45.22 69.86 33.83 66.03 30.19 63.51 43.46 65.36 45.22"/>
            <polygon class="cls-1" points="74.85 46.42 77.26 40.31 75.21 38.36 73.86 45.47 74.85 46.42"/>
          </g>
          <g>
            <polygon class="cls-1" points="82.51 27.2 71.36 32.26 67.53 28.61 80.67 25.45 82.51 27.2"/>
            <polygon class="cls-1" points="84.17 36.62 78.19 39.33 76.14 37.38 83.18 35.68 84.17 36.62"/>
          </g>
        </g>
      </g>
      <path class="cls-2" d="M108.11,10.68h-19.43V5.49c0-3.03-2.46-5.49-5.49-5.49h-23.49c-3.03,0-5.49,2.46-5.49,5.49v5.19h-19.43c-6.83,0-12.39,5.56-12.39,12.39v20.94h4.46V23.07c0-4.37,3.56-7.93,7.93-7.93h4.67v28.87h4.46V15.14h55.05v28.87h4.46V15.14h4.67c4.37,0,7.93,3.56,7.93,7.93v20.94h4.46V23.07c0-6.83-5.56-12.39-12.39-12.39ZM58.68,5.49c0-.56,.46-1.02,1.02-1.02h23.49c.56,0,1.02,.46,1.02,1.02v5.19h-25.53V5.49Z"/>
      <g>
        <path class="cls-1" d="M24.79,94.56l-2.49,4.06v2.82h-.69v-2.84l-2.48-4.04h.78l2.06,3.38,2.04-3.38h.78Z"/>
        <path class="cls-1" d="M29.7,100.82c-.5,.5-1.11,.74-1.83,.74s-1.33-.25-1.83-.74c-.5-.5-.75-1.11-.75-1.83s.25-1.34,.75-1.83c.5-.5,1.11-.74,1.83-.74s1.33,.25,1.83,.74,.75,1.11,.75,1.83-.25,1.34-.75,1.83Zm-3.21-.45c.37,.38,.83,.57,1.38,.57s1-.19,1.38-.57,.56-.84,.56-1.38-.19-1-.56-1.38c-.37-.38-.83-.57-1.38-.57s-1,.19-1.38,.57c-.37,.38-.56,.84-.56,1.38s.19,1.01,.56,1.38Z"/>
        <path class="cls-1" d="M35.99,96.53h.65v4.92h-.65v-.77c-.37,.59-.92,.89-1.65,.89-.6,0-1.07-.18-1.41-.55-.34-.36-.52-.85-.52-1.47v-3.02h.65v3.02c0,.44,.12,.78,.35,1.02,.23,.24,.56,.36,.99,.36,.47,0,.86-.15,1.15-.45,.3-.3,.44-.76,.44-1.38v-2.58Z"/>
        <path class="cls-1" d="M39.65,97.34c.3-.6,.82-.89,1.55-.89v.63c-.45,0-.82,.13-1.11,.39-.29,.26-.44,.68-.44,1.24v2.74h-.65v-4.92h.65v.82Z"/>
        <path class="cls-1" d="M50.94,94.56v.65h-2.12v6.24h-.69v-6.24h-2.12v-.65h4.92Z"/>
        <path class="cls-1" d="M52.77,97.34c.3-.6,.82-.89,1.55-.89v.63c-.45,0-.82,.13-1.11,.39-.29,.26-.44,.68-.44,1.24v2.74h-.65v-4.92h.65v.82Z"/>
        <path class="cls-1" d="M60.13,96.53h.65v4.92h-.65v-.96c-.45,.72-1.12,1.08-1.99,1.08-.7,0-1.3-.25-1.8-.75-.5-.5-.74-1.11-.74-1.83s.25-1.33,.74-1.83c.5-.5,1.09-.75,1.8-.75,.87,0,1.54,.36,1.99,1.08v-.96Zm-3.32,3.84c.37,.38,.83,.57,1.38,.57s1-.19,1.38-.57,.56-.84,.56-1.38-.19-1-.56-1.38c-.37-.38-.83-.57-1.38-.57s-1,.19-1.38,.57c-.37,.38-.56,.84-.56,1.38s.19,1.01,.56,1.38Z"/>
        <path class="cls-1" d="M66.69,96.53h.69l-2.02,4.92h-.79l-2.02-4.92h.69l1.72,4.23,1.72-4.23Z"/>
        <path class="cls-1" d="M71.22,96.41c.73,0,1.32,.26,1.77,.77,.45,.52,.67,1.12,.67,1.83,0,.07,0,.17-.02,.31h-4.32c.07,.5,.28,.89,.63,1.19s.8,.44,1.32,.44c.37,0,.7-.08,.97-.23,.27-.15,.48-.36,.62-.6l.57,.33c-.22,.35-.51,.62-.89,.83-.37,.2-.8,.3-1.28,.3-.77,0-1.4-.24-1.89-.73s-.73-1.1-.73-1.85,.24-1.35,.72-1.84,1.1-.74,1.85-.74Zm0,.63c-.51,0-.94,.15-1.28,.46-.34,.3-.55,.7-.62,1.19h3.67c-.07-.52-.27-.92-.6-1.21-.33-.29-.73-.43-1.17-.43Z"/>
        <path class="cls-1" d="M75.68,101.45v-7.18h.65v7.18h-.65Z"/>
        <path class="cls-1" d="M84.89,94.56c.94,0,1.71,.33,2.33,1,.61,.67,.92,1.48,.92,2.45s-.31,1.78-.92,2.44c-.61,.67-1.39,1-2.33,1h-2.66v-6.89h2.66Zm0,6.24c.75,0,1.37-.27,1.85-.81,.48-.54,.72-1.2,.72-1.99s-.24-1.45-.72-1.99c-.48-.54-1.1-.81-1.85-.81h-1.97v5.59h1.97Z"/>
        <path class="cls-1" d="M92.48,96.41c.73,0,1.32,.26,1.77,.77,.45,.52,.67,1.12,.67,1.83,0,.07,0,.17-.02,.31h-4.32c.07,.5,.28,.89,.63,1.19s.8,.44,1.32,.44c.37,0,.7-.08,.97-.23,.27-.15,.48-.36,.62-.6l.57,.33c-.22,.35-.51,.62-.89,.83-.37,.2-.8,.3-1.28,.3-.77,0-1.4-.24-1.89-.73s-.73-1.1-.73-1.85,.24-1.35,.72-1.84,1.1-.74,1.85-.74Zm0,.63c-.51,0-.94,.15-1.28,.46-.34,.3-.55,.7-.62,1.19h3.67c-.07-.52-.27-.92-.6-1.21-.33-.29-.73-.43-1.17-.43Z"/>
        <path class="cls-1" d="M97.25,97.8c0,.22,.1,.39,.3,.52s.44,.23,.72,.31c.28,.08,.56,.16,.85,.24,.28,.08,.52,.23,.71,.44s.29,.49,.29,.83c0,.42-.17,.76-.5,1.02-.33,.26-.76,.39-1.28,.39-.47,0-.87-.11-1.21-.32-.33-.21-.56-.48-.69-.82l.55-.32c.09,.26,.26,.46,.5,.6,.24,.15,.52,.22,.85,.22s.59-.06,.81-.19c.22-.13,.32-.33,.32-.59,0-.22-.1-.4-.3-.53-.2-.13-.44-.24-.72-.32-.28-.08-.56-.16-.85-.24-.28-.08-.52-.22-.72-.43-.2-.21-.3-.48-.3-.81,0-.4,.16-.73,.48-1,.32-.27,.72-.4,1.21-.4,.4,0,.75,.09,1.05,.27,.3,.18,.52,.42,.67,.73l-.54,.31c-.19-.46-.58-.69-1.18-.69-.28,0-.52,.07-.73,.2-.2,.13-.31,.32-.31,.57Z"/>
        <path class="cls-1" d="M102.8,95.35c-.09,.09-.2,.14-.33,.14s-.24-.05-.33-.14-.14-.2-.14-.33,.05-.24,.14-.33,.2-.14,.33-.14,.24,.05,.33,.14c.09,.09,.14,.2,.14,.33s-.05,.24-.14,.33Zm-.66,6.1v-4.92h.65v4.92h-.65Z"/>
        <path class="cls-1" d="M109.38,96.53h.65v4.72c0,.71-.24,1.27-.73,1.67-.49,.41-1.07,.61-1.74,.61-1.15,0-1.93-.4-2.33-1.2l.57-.33c.29,.6,.88,.9,1.76,.9,.56,0,1.01-.15,1.33-.45,.32-.3,.49-.7,.49-1.21v-.77c-.45,.72-1.12,1.08-1.99,1.08-.7,0-1.3-.25-1.8-.75-.5-.5-.74-1.11-.74-1.83s.25-1.33,.74-1.83c.5-.5,1.09-.75,1.8-.75,.87,0,1.54,.36,1.99,1.08v-.96Zm-3.32,3.84c.37,.38,.83,.57,1.38,.57s1-.19,1.38-.57,.56-.84,.56-1.38-.19-1-.56-1.38c-.37-.38-.83-.57-1.38-.57s-1,.19-1.38,.57c-.37,.38-.56,.84-.56,1.38s.19,1.01,.56,1.38Z"/>
        <path class="cls-1" d="M114.69,96.41c.6,0,1.07,.18,1.41,.55,.34,.36,.52,.85,.52,1.47v3.02h-.65v-3.02c0-.44-.12-.78-.35-1.02-.23-.24-.56-.36-.99-.36-.47,0-.86,.15-1.15,.45-.29,.3-.44,.76-.44,1.38v2.58h-.65v-4.92h.65v.77c.37-.59,.92-.89,1.65-.89Z"/>
        <path class="cls-1" d="M121.14,96.41c.73,0,1.32,.26,1.77,.77,.45,.52,.67,1.12,.67,1.83,0,.07,0,.17-.02,.31h-4.32c.07,.5,.28,.89,.63,1.19s.8,.44,1.32,.44c.37,0,.7-.08,.97-.23,.27-.15,.48-.36,.62-.6l.57,.33c-.22,.35-.51,.62-.89,.83-.37,.2-.8,.3-1.28,.3-.77,0-1.4-.24-1.89-.73s-.73-1.1-.73-1.85,.24-1.35,.72-1.84,1.1-.74,1.85-.74Zm0,.63c-.51,0-.94,.15-1.28,.46-.34,.3-.55,.7-.62,1.19h3.67c-.07-.52-.27-.92-.6-1.21-.33-.29-.73-.43-1.17-.43Z"/>
        <path class="cls-1" d="M126.24,97.34c.3-.6,.82-.89,1.55-.89v.63c-.45,0-.82,.13-1.11,.39-.29,.26-.44,.68-.44,1.24v2.74h-.65v-4.92h.65v.82Z"/>
      </g>
    </g>
  </g>
</svg>